<?xml version="1.0" encoding="UTF-8"?>
<svg id="Treatment_3" data-name="Treatment #3" xmlns="http://www.w3.org/2000/svg" viewBox="0 0 435.7 208.4">
  <defs>
    <style>
      .cls-1 {
        fill: #b70e2b;
      }

      .cls-2 {
        fill: #fff;
        stroke: #002c59;
        stroke-width: 10px;
      }
    </style>
  </defs>
  <path class="cls-2" d="M412.2,104l1.1,7.2c2.4,15.1,6.5,30.2,3.7,43.6-4,19.4-17.1,39.5-56.6,44.1-44.6,2.6-81.3-34.2-143.8,3.7-67-39.3-110.2,2.5-155.7-3.8-41.2-6-53.7-37.3-51.8-56.9.3-8.7,4.6-19.2,7.7-30.6l1.8-7.2c3-14.7,2.6-30.5-11.7-45.6,9.7-9.8,39.9-39.8,39.9-39.8,61.8,27.2,101.6,21.6,169.8-13.1,82.6,37.6,127.7,33.9,170.8,12.6l40.7,39.3c-16.4,13.4-17.9,29.7-15.9,46.6Z"/>
  <g>
    <path class="cls-1" d="M93.8,128.9l8.1-8.3c1-1.1,1.7-1.7,1.9-2,.5-.4,1.3-.9,1.9-1.3.8-.4,1.6-.5,3.3-.5h.8l.6-3h-13.5l-.6,3h.7c1.2,0,1.6.4,1.6,1.2s-.4,1.2-1.7,2.6l-3.8,4.3c-2.7-14.7-7-26.6-32.2-22.7,18.1,2.2,19.6,15.8,20.8,30.2l-8.7,9c-2.8,2.9-5.5,4.3-7.8,4.3h-.9l-.8,3h14.3l.8-3h-.6c-1.1,0-1.9-.6-1.9-1.4s.6-1.9,1.6-2.9l5-5.5c1.7,3.4-1,29.5,33.3,27.8-19.3-8.9-20.4-21.7-22.2-34.8Z"/>
    <path class="cls-1" d="M396.4,125.5l2.7-11.5h-3.2l-.6.6c-.4.4-.7.7-.7.7-.3.3-.6.6-1,.6s-.4-.1-.6-.3c-.1,0-.4-.2-.9-.4-2.5-1.2-5.3-2.1-8.6-2.1-9.3,0-16.3,5.4-16.3,12.7s2,6.7,7,9.4l3.1,1.7c3.3,1.8,4.6,3.3,4.6,5.3s-2.1,4.4-4.8,4.4-5.2-1.3-6.8-3.1c-1.7-1.7-2.4-3.8-2.8-7.3h-3.3c0,.1-2.9,12.6-2.9,12.6h3.2l1.2-1.1c.7-.9.9-.9,1.5-.9s.6,0,1,.4l1.2.6c2.5,1.2,5.4,1.9,8.7,1.9,9.3,0,17.2-6.2,17.2-13.7s-2.1-7.1-5.8-9.3c-.7-.4-1.7-.9-3-1.6-1.4-.7-2.2-1.2-2.2-1.3-2.9-1.2-3.7-2.3-3.7-4s2.2-3.4,5.1-3.4,3.8.6,5.2,1.9c1.6,1.7,2.1,3.1,2.4,7.2h3.2Z"/>
    <path class="cls-1" d="M360,136.1l-3.1-.8c-1.9,3.5-2.9,5-4.5,6.6-2.5,2.5-5.4,3.7-8.7,3.7s-2.4-.4-2.4-1.4,0-1.1.2-1.9l2.8-10.1c.6-.1.8-.1,1-.1,1.9,0,2.9,1.5,2.9,4.4v1.4h3.3l3.8-14.3h-3.4c-1.2,3.6-3.2,5.4-5.9,5.4s-.5,0-.9,0l2.4-9.2c.6-2.3,1.4-3,4-3,4.5,0,6.2,2.5,6.8,9.3h2.9l2.7-12h-34.8l-.8,3.1h1.4c2.1,0,3.2.8,3.2,2.2s-.2,1.7-.6,3l-5,18.6c-1.2,4.5-1.7,5-5.3,5h-1.5l-.8,3h36.1l3.9-12.8Z"/>
    <path class="cls-1" d="M305.3,149.2l15.3-26.6c2.8-4.8,3.4-5.3,5.5-5.5h.6c0,0,.9-3.2.9-3.2h-11.7l-.9,3.1h.6c1.9,0,2.5.3,2.5,1.4s-1,3.2-2.2,5.3l-6.8,11.5-.9-15c0-.2-.1-.5-.1-.7,0-1.9.8-2.6,3.2-2.6h.6l.9-3.1h-21l-.8,3.1h.6c1.9,0,2.7,1.1,2.9,3.7l2.1,28.4h8.7Z"/>
    <path class="cls-1" d="M254.7,148.9h25.7l.9-3h-1.9c-2,0-3.1-.7-3.1-2.3s.3-1.5.6-3l5-18.6c1.2-4.5,1.8-5,5.4-5h1.7l.8-3.1h-25.8l-.8,3.1h1.7c2.2,0,3.2.8,3.2,2.2s-.2,1.7-.6,3l-5,18.6c-1.2,4.5-1.9,5-5.3,5h-1.7l-.8,3Z"/>
    <path class="cls-1" d="M258.5,125.8l2.7-11.8h-34.5l-3.2,11.8,3.1.2c2.1-5.2,5.6-8.5,9.3-8.7l-6.4,23.6c-1.2,4.5-1.7,5-5.3,5h-1.7l-.9,3h25.8l.9-3h-1.7c-2.3,0-3.3-.7-3.3-2.3s.2-1.6.6-3l6.3-23.4c.2-.1.6-.1.8-.1,3,0,4.4,2.7,4.4,8.1v.8l3.1-.2Z"/>
    <path class="cls-1" d="M224,114h-12.5l-.8,3.1h1.1c2,0,2.8.6,2.8,2.2s-.1,1.5-.5,2.5l-4.8,17.9c-.4,1.9-.9,2.8-1.7,3.8-1.4,1.7-3.7,2.7-5.9,2.7s-4.4-1.4-4.4-3.5.1-1.9.4-3l4.8-17.5c1.2-4.5,1.8-5,5.6-5h.2l.8-3.1h-24.6l-.9,3.1h1.9c2.2,0,3.2.6,3.2,2.2s-.3,1.5-.6,2.8l-3.5,12.7c-.7,2.4-.9,4.4-.9,5.9,0,5.6,5.6,9.1,14.5,9.1s7.5-.9,10.2-2.4c2.3-1.5,3.6-3.5,4.6-7.2l5.2-19.3c.8-3.1,1.4-3.7,4.2-3.7h.6l.8-3.1Z"/>
    <path class="cls-1" d="M174.9,136.1c-1.3,2.9-1.7,3.8-2.9,5.5-2.1,2.9-4.8,4.5-7.6,4.5s-4.6-2.1-4.6-5.6.6-5.7,1.4-9.2c2.3-9.9,5.4-14.7,9.5-14.7s5.4,3.2,5.9,9.6l3.3-.2,2.7-12.3h-3.5c-.2.4-.4.6-.6.7-.6.9-.9,1.2-1.4,1.2s-.6-.1-.9-.2l-1-.5c-2.1-1-5-1.7-7.6-1.7-11.7,0-22.1,10-22.1,20.9s7.1,15.8,16.4,15.8,7.1-1.1,9.6-3c1.4-.9,2.5-2.2,3.5-3.7,1.3-1.7,1.8-2.8,2.9-5.5l-3.1-1.4Z"/>
    <path class="cls-1" d="M142.8,136.1l-3.1-.8c-1.8,3.5-2.9,5-4.5,6.6-2.5,2.5-5.4,3.7-8.7,3.7s-2.4-.4-2.4-1.4,0-1.1.2-1.9l2.7-10.1c.6-.1.8-.1,1-.1,1.9,0,2.9,1.5,2.9,4.4v1.4h3.3l3.8-14.3h-3.3c-1.3,3.6-3.2,5.4-6,5.4s-.4,0-.8,0l2.4-9.2c.6-2.3,1.4-3,4-3,4.5,0,6.2,2.5,6.9,9.3h2.8l2.8-12h-34.9l-.8,3.1h1.5c2.1,0,3.2.8,3.2,2.2s-.2,1.7-.6,3l-5,18.6c-1.2,4.5-1.7,5-5.3,5h-1.5l-.8,3h36.1l3.9-12.8Z"/>
    <path class="cls-1" d="M64.9,136.1l-3.1-.8c-1.8,3.5-2.8,5-4.5,6.6-2.5,2.5-5.4,3.7-8.7,3.7s-2.4-.4-2.4-1.4,0-1.1.2-1.9l2.7-10.1c.6-.1.8-.1,1.1-.1,1.9,0,2.8,1.5,2.8,4.4v1.4h3.4l3.7-14.3h-3.3c-1.3,3.6-3.2,5.4-6,5.4s-.4,0-.8,0l2.4-9.2c.6-2.3,1.4-3,4-3,4.5,0,6.2,2.5,6.9,9.3h2.9l2.7-12h-34.9l-.8,3.1h1.5c2.1,0,3.2.8,3.2,2.2s-.3,1.7-.6,3l-5,18.6c-1.2,4.5-1.7,5-5.3,5h-1.4l-.9,3h36.1l3.9-12.8Z"/>
  </g>
  <g>
    <path class="cls-1" d="M319.7,80.6l10.2-12.5c1.9-2.5,3.5-3.5,5.2-3.5h.6l.8-3.1h-13l-.8,3.1h.7c2,0,2.7.4,2.7,1.5s-.4,1.4-1,2.2l-1.5,2.1-5.2,6.6-1.7-5.8c-.4-1.4-.8-3.4-.8-4,0-1.7,1-2.5,3.1-2.5h.8l.9-3.1h-22.7l-.9,3.1h.9c2.2,0,3,.6,3.7,3.1l3.9,13-2.1,7.8c-1.2,4.5-1.8,5-5.4,5h-1.8l-.8,3h25.3l.8-3h-1.5c-2.2,0-3.2-.6-3.2-2.3s.3-1.6.6-3l2.1-7.6Z"/>
    <path class="cls-1" d="M293,73.3l2.8-11.8h-34.6l-3.2,11.8,3.1.2c2-5.2,5.6-8.5,9.3-8.7l-6.5,23.6c-1.2,4.5-1.7,5-5.3,5h-1.7l-.8,3h25.8l.9-3h-1.7c-2.3,0-3.3-.6-3.3-2.3s.2-1.6.6-3l6.3-23.4c.2-.1.6-.1.8-.1,3,0,4.3,2.7,4.3,8.1v.8l3.1-.2Z"/>
    <path class="cls-1" d="M255.6,83.4l-3.2-.4c-3,7-6.8,10.3-11.8,10.3s-2-.4-2-1.2,0-.8.2-1.4l5.8-21.1c1.1-4.5,1.7-5,5.3-5h1.8l.8-3.1h-25.9l-.8,3.1h1.7c2.2,0,3.2.8,3.2,2.3s-.2,1.6-.6,3l-5,18.6c-1.2,4.5-1.8,5-5.4,5h-1.7l-.9,3h34.5l4-13.1Z"/>
    <path class="cls-1" d="M176,83.6l-3.1-.8c-1.9,3.6-2.9,5-4.5,6.7-2.5,2.5-5.4,3.7-8.8,3.7s-2.4-.4-2.4-1.5,0-1.1.2-1.9l2.7-10.1c.6,0,.9,0,1.1,0,1.9,0,2.9,1.4,2.9,4.3v1.4h3.3l3.7-14.2h-3.3c-1.2,3.5-3.2,5.4-6,5.4s-.4,0-.8-.1l2.4-9.2c.6-2.2,1.4-3,4-3,4.5,0,6.2,2.5,6.9,9.3h2.9l2.7-12h-34.8l-.8,3.1h1.4c2.1,0,3.2.8,3.2,2.3s-.2,1.6-.6,3l-5,18.6c-1.2,4.5-1.7,5-5.3,5h-1.5l-.8,3h36.1l3.9-12.9Z"/>
    <path class="cls-1" d="M216.9,93.4c-2.9,0-3.6-.6-3.8-3.9l-2.4-28.6h-9.9s-16.8,26.6-16.8,26.6c-1.8,3-3.1,4.2-4.9,5.2-.9.4-1.5.6-3.9.6l-.9,3h15.8l.6-3h-.6c-2.8,0-3.7-.4-3.7-1.7s.4-2,1.4-3.5l1.5-2.3h9.1l.4,4.4v.6c0,1.9-.9,2.6-3.6,2.6h-.9l-.8,3h23.2l.8-3h-.6ZM191.3,82.7l6-9.6.8,9.6h-6.8Z"/>
    <path class="cls-1" d="M135.5,86.8c-.6,1.9-1.4,2.9-2.2,2.9s-.6-.2-.9-1.3c-.4-2-.8-3.2-.9-3.7-.4-1.4-1.1-2.6-1.9-3.5-1.6-1.9-3.8-2.5-7.7-2.7,2.7-.2,3.6-.2,5.8-.6,1.9-.4,3.5-.9,4.8-1.4,2.7-1.4,4.7-4.4,4.7-7.3s-1.7-5.4-4.6-6.6c-2.2-.9-4-1.2-9.1-1.1h-22l-.6,3.1h1.2c2.1,0,3.2.8,3.2,2.3s-.2,1.6-.6,3l-5,18.6c-1.2,4.5-1.7,5-5.3,5h-1.4l-.8,3h24.1l.9-3h-.8c-2.2,0-3.2-.6-3.2-2.3s.2-1.6.6-3l2.2-8.1c.4,0,.9-.1,1.2-.1,1.3,0,1.9.8,1.9,2.2s0,.8-.4,3c-.4,1.5-.4,2.7-.4,3.9,0,4.8,3.7,8.3,8.7,8.3s8.9-3.2,11.2-9.6l-2.7-.8ZM117.5,76.6h-.6l2.7-10.2c.4-1.6,1-2.2,2.2-2.2s2.1.9,2.1,2.9-.6,4.6-1.5,6.6c-1,2.2-2.2,2.9-4.8,2.9Z"/>
  </g>
</svg>